# xmcd
#
# Track frame offsets: 
#        150
#        18804
#        34189
#        50362
#        65639
#        82434
#        99549
#        122607
#        136344
#        159627
#        175447
#        192614
#        210587
#        224169
#        243582
#
# Disc length: 3557 seconds
#
# Revision: 2
# Processed by: cddbd v1.5.2PL0 Copyright (c) Steve Scherf et al.
# Submitted via: ExactAudioCopyFreeDBPlugin 1.0
#
DISCID=e70de30f
DTITLE=Various Artist - キラキラ 魔女ッ娘 Cluv
DYEAR=2010
DGENRE=Anime
TTITLE0=加護亜依×Paolo Scotti - ひみつのアッコちゃん
TTITLE1=千秋×PLASTIC OPERATOR - ときめきトゥナイト
TTITLE2=篠原ともえ×CHRISTOPHER JUST - デリケートに好きして
TTITLE3=小嶺麗奈× BOOTSY COLLINS - ラブラブミンキーモモ
TTITLE4=杏さゆり×Mr.Hardgroove (Public Enemy) - Super Love Lotion
TTITLE5=バニラビーンズ×Sexy-Synthesizer - LaLaLa ～くちびるに願いをこめて～
TTITLE6=杉本有美×bymski - キューティーハニー
TTITLE7=喜屋武ちあき×dj scotch egg - 魔法使いサリーのうた
TTITLE8=朝倉えりか×空手サイコ - スキ?キライ!?スキ!!!
TTITLE9=田代さやか×真保☆タイディスコ - ルージュの伝言
TTITLE10=La Pafait ☆Princess×B-Club - ムーンライト伝説
TTITLE11=山本梓×Lightaman Jr - DANZEN!ふたりはプリキュア
TTITLE12=横田美紀×Electrocute - ひとりぼっちのメグ
TTITLE13=篠原ともえ - デリケートに好きして
TTITLE14=真凛×Paolo Scotti - 花の子ルンルン
EXTD=YEAR: 2010
EXTT0=
EXTT1=
EXTT2=
EXTT3=
EXTT4=
EXTT5=
EXTT6=
EXTT7=
EXTT8=
EXTT9=
EXTT10=
EXTT11=
EXTT12=
EXTT13=
EXTT14=
PLAYORDER=
